<svg width="65" height="65" viewBox="0 0 65 65" fill="none" xmlns="http://www.w3.org/2000/svg">
<g clip-path="url(#clip0_1_1148)">
<path d="M15.9447 36.5386L8.10394 58.7717L15.9924 58.6949L25.7211 36.5386H15.9447Z" fill="#80AAFF"/>
<path d="M25.7207 36.5386L19.5984 59.9337L25.7644 65.0002L32.4997 45.2936V36.5386H25.7207Z" fill="#80AAFF"/>
<path d="M23.5919 36.5386L15.9928 58.6949L18.0671 58.6748L19.5992 59.9337L27.6232 36.5386H23.5919Z" fill="#EAF1FF"/>
<path d="M49.056 36.5386L56.8967 58.7717L49.0082 58.6949L39.2795 36.5386H49.056Z" fill="#6680FF"/>
<path d="M39.2795 36.5386L45.4017 59.9337L39.2358 65.0002L32.5005 45.2936V36.5386H39.2795Z" fill="#6680FF"/>
<path d="M41.4086 36.5386L49.0077 58.6949L46.9334 58.6748L45.4013 59.9337L37.3773 36.5386H41.4086Z" fill="#B3CCFF"/>
<path d="M32.4993 1.90625L31.1434 23.0483L32.4993 43.3854C43.9535 43.3854 53.2389 34.1 53.2389 22.6459C53.2389 11.1917 43.9535 1.90625 32.4993 1.90625Z" fill="#EAF1FF"/>
<path d="M11.7598 22.6459C11.7598 34.1 21.0452 43.3854 32.4994 43.3854V1.90625C21.0452 1.90625 11.7598 11.1917 11.7598 22.6459Z" fill="#F9F9F9"/>
<path d="M55.1455 22.6462C55.1455 10.159 44.9864 0 32.4993 0L31.1434 1.35585L32.4993 3.8132C42.8838 3.8132 51.3323 12.2616 51.3323 22.6462C51.3323 33.0307 42.8838 41.4791 32.4993 41.4791L31.1434 43.3857L32.4993 45.2923C44.9864 45.2923 55.1455 35.1333 55.1455 22.6462Z" fill="#FDAE02"/>
<path d="M32.4996 41.4791C22.1151 41.4791 13.6667 33.0307 13.6667 22.6462C13.6667 12.2616 22.1151 3.8132 32.4996 3.8132V0C20.0125 0 9.85352 10.159 9.85352 22.6462C9.85352 35.1333 20.0125 45.2923 32.4996 45.2923V41.4791Z" fill="#FDCB02"/>
<path d="M43.8975 15.0945L37.9611 17.0356L32.5002 12.416L31.1445 21.6924L32.5002 31.2677H43.8975V15.0945Z" fill="#FD9002"/>
<path d="M32.5002 12.416L27.0395 17.0356L21.1031 15.0945V31.2677H32.5002V12.416Z" fill="#FDAE02"/>
</g>
<defs>
<clipPath id="clip0_1_1148">
<rect width="65" height="65" fill="white"/>
</clipPath>
</defs>
</svg>
