<?xml version="1.0" encoding="UTF-8"?>
<svg version="1.1" xmlns="http://www.w3.org/2000/svg" width="800" height="800">
<path d="M0 0 C264 0 528 0 800 0 C800 264 800 528 800 800 C536 800 272 800 0 800 C0 536 0 272 0 0 Z " fill="#FEFEFE" transform="translate(0,0)"/>
<path d="M0 0 C4.92423798 4.49912391 9.13997052 10.19924824 12.1875 16.125 C12.1875 17.115 12.1875 18.105 12.1875 19.125 C10.5375 19.455 8.8875 19.785 7.1875 20.125 C6.78660156 19.42375 6.38570313 18.7225 5.97265625 18 C-1.46914403 5.58012471 -10.5545028 -1.53453863 -24.55078125 -5.6875 C-26.97682077 -6.23081212 -29.34165239 -6.60833179 -31.8125 -6.875 C-32.52535156 -6.9575 -33.23820312 -7.04 -33.97265625 -7.125 C-44.83705275 -7.75596314 -55.08472374 -2.92221609 -63.8125 3.125 C-64.84375 3.82625 -65.875 4.5275 -66.9375 5.25 C-73.61823137 11.10995581 -79.01125885 20.10304022 -80.18359375 28.9140625 C-80.46859486 41.08528644 -75.2294137 49.72542922 -68.87109375 59.76171875 C-62.91944818 69.48537499 -56.46302451 80.42784963 -56.8125 92.125 C-55.95914063 92.33253906 -55.10578125 92.54007812 -54.2265625 92.75390625 C-41.03331586 96.00461341 -27.92504525 99.56467979 -14.8125 103.125 C-14.4825 104.775 -14.1525 106.425 -13.8125 108.125 C-18.74136638 109.12559979 -23.6709773 110.12241459 -28.60131836 111.11572266 C-30.27861218 111.45419948 -31.95569747 111.79371141 -33.63256836 112.13427734 C-36.0422653 112.62349075 -38.45268656 113.10898225 -40.86328125 113.59375 C-41.61337967 113.74686646 -42.36347809 113.89998291 -43.13630676 114.05773926 C-46.0830143 114.6472714 -48.79882147 115.125 -51.8125 115.125 C-52.4725 113.475 -53.1325 111.825 -53.8125 110.125 C-48.66934266 108.51649613 -43.72397849 107.59704975 -38.375 107 C-37.64345703 106.91363281 -36.91191406 106.82726562 -36.15820312 106.73828125 C-34.37689906 106.52871607 -32.59477719 106.32612132 -30.8125 106.125 C-30.8125 105.465 -30.8125 104.805 -30.8125 104.125 C-31.90820312 104.02058594 -33.00390625 103.91617188 -34.1328125 103.80859375 C-39.46997659 103.13939006 -44.53195562 101.68461839 -49.6875 100.1875 C-50.63625 99.92259766 -51.585 99.65769531 -52.5625 99.38476562 C-53.46742188 99.12501953 -54.37234375 98.86527344 -55.3046875 98.59765625 C-56.53227783 98.24586304 -56.53227783 98.24586304 -57.78466797 97.88696289 C-59.8125 97.125 -59.8125 97.125 -61.8125 95.125 C-62.23502977 93.4474313 -62.64871146 91.76679598 -63.00292969 90.07348633 C-65.89622137 76.26858395 -72.58465052 64.91339653 -80.05078125 53.10546875 C-84.74806941 45.15861539 -88.03171501 36.43536919 -86.8125 27.125 C-81.78581694 10.83161354 -71.86557196 -0.16640073 -57.1796875 -8.2109375 C-38.19448948 -17.59341355 -16.125441 -12.98503783 0 0 Z " fill="#1AABE1" transform="translate(280.8125,348.875)"/>
<path d="M0 0 C4.2502579 2.50015171 6.9531181 5.40623621 9.1875 9.875 C9.33727039 12.12155587 9.40900174 14.37363768 9.4375 16.625 C9.46328125 17.83671875 9.4890625 19.0484375 9.515625 20.296875 C9.04784245 25.39793228 7.50648199 28.65747817 3.75 32.125 C-2.12846665 36.13956259 -6.74217688 36.63882992 -13.8125 35.875 C-18.55347094 34.61393366 -21.85316112 32.3474645 -24.8125 28.4375 C-27.87209867 22.92815509 -27.53694257 16.98101594 -26.8125 10.875 C-24.92809281 5.22177843 -21.70910454 2.53020259 -16.625 -0.375 C-10.93390486 -1.89262537 -5.62671478 -1.66034207 0 0 Z " fill="#123943" transform="translate(303.8125,378.125)"/>
<path d="M0 0 C3.72913535 2.1421029 6.13404748 4.04384846 7.86328125 8.0703125 C8.23322847 10.84207091 8.45548192 13.35906151 8.48828125 16.1328125 C8.49923828 16.81754639 8.51019531 17.50228027 8.52148438 18.20776367 C8.38030754 23.24935895 7.01395518 26.19343968 3.86328125 30.0703125 C-2.1394951 34.60302117 -6.78730868 35.72438621 -14.13671875 35.0703125 C-18.4850651 34.10147042 -21.38155136 32.84535272 -24.51171875 29.6328125 C-28.62924039 23.13979761 -29.00766552 17.74381192 -28.13671875 10.0703125 C-26.49646673 5.21058907 -23.80924739 2.12653406 -19.38671875 -0.4296875 C-13.00699407 -3.12787933 -6.30525369 -2.80514293 0 0 Z " fill="#173C47" transform="translate(401.13671875,378.9296875)"/>
<path d="M0 0 C3.20294189 1.60147095 5.24978515 3.65784811 7.625 6.3125 C7.295 7.3025 6.965 8.2925 6.625 9.3125 C5.19089632 9.56204005 3.75239928 9.78642642 2.3125 10 C1.11173828 10.19142578 1.11173828 10.19142578 -0.11328125 10.38671875 C-2.375 10.3125 -2.375 10.3125 -3.953125 8.859375 C-4.42234375 8.34890625 -4.8915625 7.8384375 -5.375 7.3125 C-9.13379503 6.8341079 -11.4513556 6.81515302 -14.8125 8.625 C-17.31376823 12.92718135 -16.96754603 17.45500061 -16.375 22.3125 C-15.56719482 25.0533078 -15.56719482 25.0533078 -14.375 27.3125 C-9.99063621 29.50468189 -4.00598598 28.47024649 0.625 27.3125 C0.625 25.6625 0.625 24.0125 0.625 22.3125 C-2.015 22.3125 -4.655 22.3125 -7.375 22.3125 C-7.375 20.3325 -7.375 18.3525 -7.375 16.3125 C-2.095 16.3125 3.185 16.3125 8.625 16.3125 C9.14351852 25.64583333 9.14351852 25.64583333 8.625 30.3125 C6 33.0625 6 33.0625 2.625 34.3125 C1.7175 34.725 0.81 35.1375 -0.125 35.5625 C-7.40811723 37.24321936 -14.77927505 37.12947046 -21.375 33.3125 C-26.05232055 28.75826683 -27.45655051 23.82491728 -27.75 17.4375 C-27.62708289 12.33644001 -26.46564536 8.40500593 -23.375 4.3125 C-16.2159825 -1.38549352 -8.78026498 -1.7885725 0 0 Z " fill="#1F424B" transform="translate(352.375,377.6875)"/>
<path d="M0 0 C9.57 0 19.14 0 29 0 C29 1.98 29 3.96 29 6 C22.73 6 16.46 6 10 6 C10 8.64 10 11.28 10 14 C15.94 14 21.88 14 28 14 C28 15.65 28 17.3 28 19 C22.06 19 16.12 19 10 19 C10 21.97 10 24.94 10 28 C16.6 28 23.2 28 30 28 C30 30.31 30 32.62 30 35 C20.1 35 10.2 35 0 35 C0 23.45 0 11.9 0 0 Z " fill="#143A44" transform="translate(487,378)"/>
<path d="M0 0 C3.47974487 -0.55703426 6.54423442 -0.77651875 10 0 C12.72447738 2.63401621 14.46660034 5.54673411 16 9 C16 9.66 16 10.32 16 11 C16.66 11 17.32 11 18 11 C18.268125 10.29875 18.53625 9.5975 18.8125 8.875 C20.0681449 5.8350176 21.50235123 2.9272226 23 0 C26.63 0 30.26 0 34 0 C29.17857143 8.83928571 29.17857143 8.83928571 26.625 12.25 C24.78448549 14.78709848 24.78448549 14.78709848 25.11328125 17.21875 C26.32116727 21.00736166 28.34401722 23.97493507 30.5625 27.25 C35 33.90288316 35 33.90288316 35 35 C31.13952554 35.69111568 27.82725588 35.95937916 24 35 C20.9143357 31.69844451 18.93361075 28.06520213 17 24 C14.736472 26.73393197 12.94636354 29.10933586 11.375 32.3125 C9 35 9 35 6.5234375 35.37890625 C3.98913402 35.37533681 1.52014266 35.25970936 -1 35 C0.87340423 29.6176799 4.11238153 25.4306155 7.41796875 20.83984375 C9.16340053 18.25229895 9.16340053 18.25229895 8.9921875 16.01171875 C7.5596232 13.10711003 5.78788884 10.53146652 3.9375 7.875 C0 2.21441125 0 2.21441125 0 0 Z " fill="#153A45" transform="translate(529,378)"/>
<path d="M0 0 C10.89 0 21.78 0 33 0 C33 2.31 33 4.62 33 7 C29.37 7 25.74 7 22 7 C22 16.24 22 25.48 22 35 C18.7 35 15.4 35 12 35 C12 25.76 12 16.52 12 7 C8.04 7 4.08 7 0 7 C0 4.69 0 2.38 0 0 Z " fill="#163D48" transform="translate(442,378)"/>
<path d="M0 0 C10.89 0 21.78 0 33 0 C33 2.31 33 4.62 33 7 C29.04 7 25.08 7 21 7 C21 16.24 21 25.48 21 35 C18.03 35 15.06 35 12 35 C12 25.76 12 16.52 12 7 C8.04 7 4.08 7 0 7 C0 4.69 0 2.38 0 0 Z " fill="#113741" transform="translate(573,378)"/>
<path d="M0 0 C3.3 0 6.6 0 10 0 C10 9.24 10 18.48 10 28 C15.61 28 21.22 28 27 28 C27 30.31 27 32.62 27 35 C18.09 35 9.18 35 0 35 C0 23.45 0 11.9 0 0 Z " fill="#173F4A" transform="translate(240,378)"/>
<path d="M0 0 C3.21919783 1.14971351 5.41403952 2.91510658 7.23828125 5.828125 C9.36821771 11.9011746 9.07588672 19.40865 6.6328125 25.29296875 C4.43991763 28.92855761 1.78058079 31.10970961 -2 33 C-8.04187909 33.63987314 -12.6980382 32.98235351 -18 30 C-18.33 29.01 -18.66 28.02 -19 27 C-15.84450262 26.39895288 -13.09348105 25.99439114 -9.875 26.1875 C-6.8778503 26.27012974 -6.8778503 26.27012974 -4.6875 24.125 C-1.37541527 19.95422663 -1.57647091 16.17246169 -2 11 C-2.4125 10.113125 -2.825 9.22625 -3.25 8.3125 C-3.4975 7.549375 -3.745 6.78625 -4 6 C-2.125 2.6875 -2.125 2.6875 0 0 Z " fill="#133943" transform="translate(305,380)"/>
<path d="M0 0 C3.47448773 1.41445742 4.42944662 3.39787544 5.87109375 6.76171875 C6.70943703 11.65205454 6.3544112 14.85952617 3.99609375 19.26171875 C1.52521012 22.16864067 0.78836614 22.63941576 -2.94140625 23.13671875 C-6.12890625 22.76171875 -6.12890625 22.76171875 -9.00390625 21.07421875 C-12.33478881 15.88196064 -12.06345965 10.75205286 -11.12890625 4.76171875 C-8.23926855 -0.11454486 -5.35904633 -1.10422694 0 0 Z " fill="#F1F5F6" transform="translate(298.12890625,384.23828125)"/>
<path d="M0 0 C5.73704291 4.84461401 5.73704291 4.84461401 6.23828125 8.953125 C6.41774475 14.50704803 5.73664814 17.60394337 2 22 C-0.84083641 23.42041821 -2.85477278 23.31452272 -6 23 C-8.84780619 20.76793569 -9.84997666 19.45007001 -11 16 C-11.11792999 14.35720783 -11.17511674 12.70947306 -11.1875 11.0625 C-11.20167969 10.20785156 -11.21585937 9.35320312 -11.23046875 8.47265625 C-10.98075043 5.79347492 -10.4614606 4.24802744 -9 2 C-5.48175489 -0.34549674 -4.14224306 -0.57991403 0 0 Z " fill="#F3F8F8" transform="translate(394,384)"/>
<path d="M0 0 C3.20294189 1.60147095 5.24978515 3.65784811 7.625 6.3125 C7.295 7.3025 6.965 8.2925 6.625 9.3125 C5.19089632 9.56204005 3.75239928 9.78642642 2.3125 10 C1.11173828 10.19142578 1.11173828 10.19142578 -0.11328125 10.38671875 C-2.375 10.3125 -2.375 10.3125 -3.94921875 8.84765625 C-4.65498047 8.08775391 -4.65498047 8.08775391 -5.375 7.3125 C-9.10486522 7.04608106 -11.82146071 7.1279869 -15.375 8.3125 C-15.705 7.3225 -16.035 6.3325 -16.375 5.3125 C-17.035 4.9825 -17.695 4.6525 -18.375 4.3125 C-18.375 4.9725 -18.375 5.6325 -18.375 6.3125 C-19.303125 6.43625 -19.303125 6.43625 -20.25 6.5625 C-22.55937567 7.12508459 -22.55937567 7.12508459 -23.625 9.375 C-23.8725 10.014375 -24.12 10.65375 -24.375 11.3125 C-25.035 11.3125 -25.695 11.3125 -26.375 11.3125 C-25.2841382 6.10060472 -23.37244191 4.12504763 -19.12890625 1.29296875 C-13.40499493 -1.90681241 -6.23561704 -1.27021829 0 0 Z " fill="#1F424C" transform="translate(352.375,377.6875)"/>
<path d="M0 0 C0.99 0.33 1.98 0.66 3 1 C2.0787571 6.68099789 1.03745006 12.33935016 0 18 C-0.66 18 -1.32 18 -2 18 C-1.67 19.32 -1.34 20.64 -1 22 C-1.99 22.66 -2.98 23.32 -4 24 C-8.81111111 19.18888889 -8.81111111 19.18888889 -9.3984375 15.4921875 C-9.39070313 14.62851562 -9.38296875 13.76484375 -9.375 12.875 C-9.38273437 12.00617188 -9.39046875 11.13734375 -9.3984375 10.2421875 C-9.26695312 9.50226563 -9.13546875 8.76234375 -9 8 C-8.01 7.34 -7.02 6.68 -6 6 C-4.79549696 3.44816596 -4.79549696 3.44816596 -4 1 C-2.68 1.33 -1.36 1.66 0 2 C0 1.34 0 0.68 0 0 Z " fill="#103943" transform="translate(334,382)"/>
<path d="M0 0 C2.14576637 -0.02685938 4.29162645 -0.04633088 6.4375 -0.0625 C7.63246094 -0.07410156 8.82742188 -0.08570313 10.05859375 -0.09765625 C13 0 13 0 14 1 C14.41950502 5.72187046 14.76432377 10.97916542 12 15 C8.875 15.8125 8.875 15.8125 6 16 C5.67 14.68 5.34 13.36 5 12 C5.99 11.67 6.98 11.34 8 11 C8 9.35 8 7.7 8 6 C5.36 6 2.72 6 0 6 C0 4.02 0 2.04 0 0 Z " fill="#133944" transform="translate(345,394)"/>
<path d="M0 0 C1.8125 1.0625 1.8125 1.0625 3 3 C3.6384 8.9584 3.6384 8.9584 1.8125 11.9375 C-0.66049093 13.38718434 -2.17884512 13.42317323 -5 13 C-6.8125 11.9375 -6.8125 11.9375 -8 10 C-8.6384 4.0416 -8.6384 4.0416 -6.8125 1.0625 C-4.33950907 -0.38718434 -2.82115488 -0.42317323 0 0 Z " fill="#39494C" transform="translate(273,425)"/>
<path d="M0 0 C-3.57029652 1.19009884 -4.66990845 0.67880197 -8.1875 -0.4375 C-13.02604995 -1.85303323 -16.98401435 -2.28392372 -22 -2 C-19.03 -1.01 -16.06 -0.02 -13 1 C-16.57510111 1.89377528 -18.24917563 2.0258444 -21.75 1.5625 C-22.94882813 1.40974609 -22.94882813 1.40974609 -24.171875 1.25390625 C-24.77515625 1.17011719 -25.3784375 1.08632813 -26 1 C-26 0.34 -26 -0.32 -26 -1 C-27.41750563 -0.88490339 -28.83401169 -0.75746342 -30.25 -0.625 C-31.43335938 -0.52058594 -31.43335938 -0.52058594 -32.640625 -0.4140625 C-35.14478952 0.02541008 -36.86957156 0.61427885 -39 2 C-39.33 2.99 -39.66 3.98 -40 5 C-40.5775 4.773125 -41.155 4.54625 -41.75 4.3125 C-44.11481756 3.71884554 -44.11481756 3.71884554 -46.0625 5.5 C-46.701875 5.995 -47.34125 6.49 -48 7 C-48.99 6.67 -49.98 6.34 -51 6 C-34.33249959 -4.55380661 -18.79937338 -6.89207797 0 0 Z " fill="#23ABDF" transform="translate(266,340)"/>
<path d="M0 0 C2.31 0 4.62 0 7 0 C6.67 0.66 6.34 1.32 6 2 C4.68 2.33 3.36 2.66 2 3 C2 12.9 2 22.8 2 33 C9.26 33 16.52 33 24 33 C24 31.68 24 30.36 24 29 C20.04 29.33 16.08 29.66 12 30 C11.67 29.34 11.34 28.68 11 28 C16.28 28 21.56 28 27 28 C27 30.31 27 32.62 27 35 C18.09 35 9.18 35 0 35 C0 23.45 0 11.9 0 0 Z " fill="#17343C" transform="translate(240,378)"/>
<path d="M0 0 C0.99 0 1.98 0 3 0 C3.34030315 4.71382883 3.53288118 9.29650791 3 14 C0.25 16.8125 0.25 16.8125 -3 18 C-3.70125 18.268125 -4.4025 18.53625 -5.125 18.8125 C-7.33864352 19.03386435 -8.83770979 18.54057255 -11 18 C-13.6730586 17.90747105 -16.32407493 17.95540125 -19 18 C-18.28125 16.0859375 -18.28125 16.0859375 -17 14 C-14.90625 13.1015625 -14.90625 13.1015625 -12.5 12.625 C-11.30890625 12.36589844 -11.30890625 12.36589844 -10.09375 12.1015625 C-9.4028125 12.06804687 -8.711875 12.03453125 -8 12 C-7.34 12.66 -6.68 13.32 -6 14 C-6.33 14.66 -6.66 15.32 -7 16 C-3.3659248 14.91235329 -3.3659248 14.91235329 -0.84375 12.25 C0.14869913 9.60346899 0.19915538 7.56790436 0.125 4.75 C0.09792969 3.41195313 0.09792969 3.41195313 0.0703125 2.046875 C0.04710937 1.37140625 0.02390625 0.6959375 0 0 Z " fill="#1C3E47" transform="translate(358,394)"/>
<path d="M0 0 C7.625 0.875 7.625 0.875 11 2 C11 2.99 11 3.98 11 5 C2.51311539 7.29967196 -5.20606372 8.42781312 -14 8 C-11.41073669 5.41073669 -9.97294721 5.62601957 -6.375 5.375 C-5.37210938 5.30023438 -4.36921875 5.22546875 -3.3359375 5.1484375 C-2.17964844 5.07496094 -2.17964844 5.07496094 -1 5 C-0.67 3.35 -0.34 1.7 0 0 Z " fill="#02ADEF" transform="translate(254,451)"/>
<path d="M0 0 C2.97 0 5.94 0 9 0 C9.625 2.375 9.625 2.375 10 5 C9.34 5.66 8.68 6.32 8 7 C8.99 8.65 9.98 10.3 11 12 C7.83884224 10.63016497 7.0072908 10.0109362 5 7 C4.01 6.67 3.02 6.34 2 6 C2 7.98 2 9.96 2 12 C1.34 12 0.68 12 0 12 C0 8.04 0 4.08 0 0 Z " fill="#253D42" transform="translate(558,426)"/>
<path d="M0 0 C2.97 0 5.94 0 9 0 C9.33 1.32 9.66 2.64 10 4 C9.01 5.485 9.01 5.485 8 7 C8.99 8.65 9.98 10.3 11 12 C10.01 12 9.02 12 8 12 C6.98133771 10.34467377 5.98189187 8.67739862 5 7 C4.01 6.67 3.02 6.34 2 6 C2 7.98 2 9.96 2 12 C1.34 12 0.68 12 0 12 C0 8.04 0 4.08 0 0 Z " fill="#33484A" transform="translate(312,426)"/>
<path d="M0 0 C5.50808397 0.59015185 10.64878069 1.56663769 16 3 C16 3.66 16 4.32 16 5 C8.74 6.32 1.48 7.64 -6 9 C-5.67 10.65 -5.34 12.3 -5 14 C-1.535 13.505 -1.535 13.505 2 13 C-1.24153166 15.1610211 -2.23692901 15.64247553 -6 15 C-8.3125 12.5 -8.3125 12.5 -10 10 C-9.34 9.01 -8.68 8.02 -8 7 C-4.375 6.8125 -4.375 6.8125 -1 7 C-1 6.34 -1 5.68 -1 5 C4.445 4.505 4.445 4.505 10 4 C8.535625 3.71125 7.07125 3.4225 5.5625 3.125 C3.06640625 2.6328125 3.06640625 2.6328125 1 2 C0.67 1.34 0.34 0.68 0 0 Z " fill="#D5F9FE" transform="translate(234,450)"/>
<path d="M0 0 C0.33 0 0.66 0 1 0 C1.07347656 0.99580078 1.07347656 0.99580078 1.1484375 2.01171875 C1.71125812 8.7112236 1.71125812 8.7112236 4 15 C3.01 15.33 2.02 15.66 1 16 C1.86562302 18.28232532 1.86562302 18.28232532 4.625 19.0625 C8.08083902 20.02245528 11.44209512 20.57305141 15 21 C15 21.33 15 21.66 15 22 C7.87067627 22.47179348 1.90674623 22.42635871 -4 18 C-4.66 17.01 -5.32 16.02 -6 15 C-4.35 14.67 -2.7 14.34 -1 14 C-0.84850702 10.37114676 -0.84850702 10.37114676 -2 7 C-1.34 7 -0.68 7 0 7 C0 4.69 0 2.38 0 0 Z " fill="#2F4D56" transform="translate(286,392)"/>
<path d="M0 0 C3.99996286 1.33332095 4.83782337 3.4957827 7 7 C7.33 4.69 7.66 2.38 8 0 C8.66 0 9.32 0 10 0 C10 4.29 10 8.58 10 13 C6.00003714 11.66667905 5.16217663 9.5042173 3 6 C2.67 8.31 2.34 10.62 2 13 C1.34 13 0.68 13 0 13 C0 8.71 0 4.42 0 0 Z " fill="#3C5557" transform="translate(452,425)"/>
<path d="M0 0 C0.99 0 1.98 0 3 0 C3.05382106 2.62527189 3.09358313 5.24944713 3.125 7.875 C3.14175781 8.62136719 3.15851563 9.36773437 3.17578125 10.13671875 C3.1933959 12.09194461 3.10320189 14.04742021 3 16 C2.34 16.66 1.68 17.32 1 18 C0.67 16.35 0.34 14.7 0 13 C-0.66 13 -1.32 13 -2 13 C-2.05447047 11.58376784 -2.09300508 10.16691809 -2.125 8.75 C-2.14820313 7.96109375 -2.17140625 7.1721875 -2.1953125 6.359375 C-1.9828378 3.79268059 -1.28654105 2.2083933 0 0 Z " fill="#14AEE8" transform="translate(196,372)"/>
<path d="M0 0 C3.00617269 3.00617269 2.59585316 5.82381598 3 10 C2.360625 10.103125 1.72125 10.20625 1.0625 10.3125 C0.0415625 10.6528125 0.0415625 10.6528125 -1 11 C-1.33 11.99 -1.66 12.98 -2 14 C-2.99 13.67 -3.98 13.34 -5 13 C-5.33 12.01 -5.66 11.02 -6 10 C-5.67 9.67 -5.34 9.34 -5 9 C-5.28674418 6.99279077 -5.61866701 4.9914056 -6 3 C-5.01 3 -4.02 3 -3 3 C-1.31201173 1.56249809 -1.31201173 1.56249809 0 0 Z " fill="#113843" transform="translate(380,393)"/>
<path d="M0 0 C0.94875 0.04125 1.8975 0.0825 2.875 0.125 C3.535 1.445 4.195 2.765 4.875 4.125 C3.740625 3.939375 2.60625 3.75375 1.4375 3.5625 C0.261875 3.418125 -0.91375 3.27375 -2.125 3.125 C-3.42133621 4.19145115 -3.42133621 4.19145115 -3.1875 6.6875 C-3.166875 7.491875 -3.14625 8.29625 -3.125 9.125 C-1.475 9.455 0.175 9.785 1.875 10.125 C2.205 9.465 2.535 8.805 2.875 8.125 C1.885 8.125 0.895 8.125 -0.125 8.125 C-0.125 7.465 -0.125 6.805 -0.125 6.125 C1.525 6.125 3.175 6.125 4.875 6.125 C5.0625 8.5 5.0625 8.5 4.875 11.125 C1.65356724 13.27262184 0.6154533 13.686068 -3.125 13.125 C-5 11.5625 -5 11.5625 -6.125 9.125 C-5.66473739 0.2265895 -5.66473739 0.2265895 0 0 Z " fill="#3E4F52" transform="translate(398.125,424.875)"/>
<path d="M0 0 C6.6 0 13.2 0 20 0 C20 2.31 20 4.62 20 7 C12.08 7 4.16 7 -4 7 C-4 6.67 -4 6.34 -4 6 C2.6 6 9.2 6 16 6 C15.67 4.35 15.34 2.7 15 1 C10.05 1 5.1 1 0 1 C0 0.67 0 0.34 0 0 Z " fill="#344E56" transform="translate(497,406)"/>
<path d="M0 0 C3.27346607 3.09652196 5.97509956 5.95019912 8 10 C8 10.99 8 11.98 8 13 C6.35 13.33 4.7 13.66 3 14 C2.16121545 12.71186658 1.32913217 11.41936744 0.5 10.125 C0.0359375 9.40570313 -0.428125 8.68640625 -0.90625 7.9453125 C-2 6 -2 6 -2 4 C-1.01 3.67 -0.02 3.34 1 3 C0.67 2.01 0.34 1.02 0 0 Z " fill="#1EABDF" transform="translate(285,355)"/>
<path d="M0 0 C0.99 0 1.98 0 3 0 C3.67354499 1.43429001 4.33859701 2.87257057 5 4.3125 C5.556875 5.51326172 5.556875 5.51326172 6.125 6.73828125 C7 9 7 9 7 12 C6.34 12 5.68 12 5 12 C4.67 11.01 4.34 10.02 4 9 C2.35 8.67 0.7 8.34 -1 8 C-1.33 9.32 -1.66 10.64 -2 12 C-2.66 12 -3.32 12 -4 12 C-3.33501617 7.61110675 -1.81242323 4.0188515 0 0 Z " fill="#3D5053" transform="translate(373,426)"/>
<path d="M0 0 C2.97 0 5.94 0 9 0 C9 0.66 9 1.32 9 2 C6.69 2 4.38 2 2 2 C2 3.32 2 4.64 2 6 C4.31 6 6.62 6 9 6 C9 6.33 9 6.66 9 7 C6.69 7 4.38 7 2 7 C2 8.32 2 9.64 2 11 C4.64 11 7.28 11 10 11 C10 11.66 10 12.32 10 13 C6.7 13 3.4 13 0 13 C0 8.71 0 4.42 0 0 Z " fill="#465659" transform="translate(475,425)"/>
<path d="M0 0 C8.26405949 -0.56993514 15.1977858 1.51394597 23 4 C21 6 21 6 18.75 6.1171875 C11.89675925 5.51363505 6.23127423 3.90612573 0 1 C0 0.67 0 0.34 0 0 Z " fill="#07ACE9" transform="translate(243,337)"/>
<path d="M0 0 C2.97 0 5.94 0 9 0 C9 0.66 9 1.32 9 2 C6.69 2 4.38 2 2 2 C2 3.32 2 4.64 2 6 C3.98 6 5.96 6 8 6 C8 6.33 8 6.66 8 7 C6.02 7 4.04 7 2 7 C2 8.32 2 9.64 2 11 C4.31 11 6.62 11 9 11 C9 11.66 9 12.32 9 13 C6.03 13 3.06 13 0 13 C0 8.71 0 4.42 0 0 Z " fill="#2E4748" transform="translate(536,425)"/>
<path d="M0 0 C2.97 0 5.94 0 9 0 C9 0.66 9 1.32 9 2 C6.69 2 4.38 2 2 2 C2 3.32 2 4.64 2 6 C3.98 6 5.96 6 8 6 C8 6.33 8 6.66 8 7 C6.02 7 4.04 7 2 7 C2 8.32 2 9.64 2 11 C4.31 11 6.62 11 9 11 C9 11.66 9 12.32 9 13 C6.03 13 3.06 13 0 13 C0 8.71 0 4.42 0 0 Z " fill="#425356" transform="translate(581,425)"/>
<path d="M0 0 C5.73842251 -0.20413361 10.60539047 -0.27141454 16 2 C14.68 4.31 13.36 6.62 12 9 C10.35 8.67 8.7 8.34 7 8 C8.32 7.67 9.64 7.34 11 7 C11 6.34 11 5.68 11 5 C9.35 5.33 7.7 5.66 6 6 C6 4.33333333 6 2.66666667 6 1 C4.02 1 2.04 1 0 1 C0 0.67 0 0.34 0 0 Z " fill="#254851" transform="translate(290,377)"/>
<path d="M0 0 C2.25 -0.3125 2.25 -0.3125 5 0 C7.99817654 2.99817654 9.63231579 6.01092106 11 10 C8.8125 10.3125 8.8125 10.3125 6 10 C2.95051111 7.5742702 1.27725099 5.95971495 0.1875 2.1875 C0.125625 1.465625 0.06375 0.74375 0 0 Z " fill="#11AAE6" transform="translate(276,349)"/>
<path d="M0 0 C4.70588235 0.70588235 4.70588235 0.70588235 6 2 C5.71269945 4.33944736 5.38063221 6.6739143 5 9 C3.33388095 9.042721 1.66617115 9.04063832 0 9 C-1 8 -1 8 -1.125 4.5 C-1 1 -1 1 0 0 Z " fill="#EFF8F9" transform="translate(268,427)"/>
<path d="M0 0 C2.61580479 0.3269756 4.64078137 0.82039068 7 2 C7 2.66 7 3.32 7 4 C5.35 4 3.7 4 2 4 C2 4.66 2 5.32 2 6 C2.99 6 3.98 6 5 6 C4.67 6.99 4.34 7.98 4 9 C-0.875 8.125 -0.875 8.125 -2 7 C-2.1875 4.5625 -2.1875 4.5625 -2 2 C-1.34 1.34 -0.68 0.68 0 0 Z " fill="#EEF9FA" transform="translate(396,427)"/>
<path d="M0 0 C0.66 0 1.32 0 2 0 C2 1.65 2 3.3 2 5 C3.98 5 5.96 5 8 5 C8.33 3.68 8.66 2.36 9 1 C9 4.96 9 8.92 9 13 C8.67 13 8.34 13 8 13 C8 11.02 8 9.04 8 7 C6.02 7 4.04 7 2 7 C2 8.98 2 10.96 2 13 C1.34 13 0.68 13 0 13 C0 8.71 0 4.42 0 0 Z " fill="#37494E" transform="translate(513,425)"/>
<path d="M0 0 C1.89453125 0.65234375 1.89453125 0.65234375 4 2 C5.01171875 4.56640625 5.01171875 4.56640625 5.6875 7.5625 C6.2600097 11.08027875 6.2600097 11.08027875 8 14 C8.14115161 16.67058851 8.04247107 19.32432238 8 22 C8.804375 22.12375 9.60875 22.2475 10.4375 22.375 C11.7059375 22.684375 11.7059375 22.684375 13 23 C13.33 23.66 13.66 24.32 14 25 C10.640625 24.4453125 10.640625 24.4453125 7 23 C5.81768844 20.40018586 5.24303247 18.6088188 4.75 15.875 C4.45090648 14.5162655 4.14884245 13.15818133 3.84375 11.80078125 C3.5653125 10.54652344 3.286875 9.29226563 3 8 C2.10638075 5.26906877 1.08619952 2.66118882 0 0 Z " fill="#D5FAFE" transform="translate(217,418)"/>
<path d="M0 0 C0.66 0 1.32 0 2 0 C2.33 3.3 2.66 6.6 3 10 C4.32 10 5.64 10 7 10 C7.33 7.03 7.66 4.06 8 1 C8.33 1 8.66 1 9 1 C9 4.63 9 8.26 9 12 C5.625 12.625 5.625 12.625 2 13 C0 11 0 11 -0.1953125 8.3984375 C-0.17210937 7.40070313 -0.14890625 6.40296875 -0.125 5.375 C-0.10695313 4.37210937 -0.08890625 3.36921875 -0.0703125 2.3359375 C-0.04710937 1.56507813 -0.02390625 0.79421875 0 0 Z " fill="#3E4C4F" transform="translate(289,425)"/>
<path d="M0 0 C5.23880078 0.55145271 9.97350697 1.42922093 15 3 C15 3.33 15 3.66 15 4 C12.69 4 10.38 4 8 4 C8 4.66 8 5.32 8 6 C10.97 6.495 10.97 6.495 14 7 C9.47907032 8.45606519 6.48351204 7.27032841 2 6 C2 5.34 2 4.68 2 4 C3.32 4 4.64 4 6 4 C6 3.34 6 2.68 6 2 C3.03 1.505 3.03 1.505 0 1 C0 0.67 0 0.34 0 0 Z " fill="#24A9DD" transform="translate(236,445)"/>
<path d="M0 0 C0.66 0 1.32 0 2 0 C2.67154933 1.28913487 3.33708859 2.58140204 4 3.875 C4.37125 4.59429687 4.7425 5.31359375 5.125 6.0546875 C6 8 6 8 6 10 C6.66 10 7.32 10 8 10 C8 11.32 8 12.64 8 14 C5.11192917 13.70123405 4.17944953 13.2193272 2.3125 10.9375 C0.64564909 7.20692892 0.34449373 4.06502604 0 0 Z " fill="#0EACE5" transform="translate(207,406)"/>
<path d="M0 0 C0.99 0 1.98 0 3 0 C3.94296589 3.66708957 4.11421833 6.35346727 3 10 C2.01 10.495 2.01 10.495 1 11 C0.67 11.99 0.34 12.98 0 14 C-1.65 14.33 -3.3 14.66 -5 15 C-3.07119658 11.59244728 -1.1723491 8.25852365 1 5 C0.6878236 2.35367713 0.6878236 2.35367713 0 0 Z " fill="#213F49" transform="translate(537,391)"/>
<path d="M0 0 C4.42857143 5.14285714 4.42857143 5.14285714 5 9 C5.66 9 6.32 9 7 9 C7.66 7.68 8.32 6.36 9 5 C8.67 6.98 8.34 8.96 8 11 C6.02 11.33 4.04 11.66 2 12 C0.86235649 7.73383684 0 4.43513689 0 0 Z " fill="#24454F" transform="translate(540,380)"/>
<path d="M0 0 C2.99332739 0.9977758 3.94766315 1.7522025 6 4 C6.66 3.01 7.32 2.02 8 1 C8.66 1 9.32 1 10 1 C9.71125 1.495 9.4225 1.99 9.125 2.5 C7.58711584 5.91752035 6.85152195 9.3506202 6 13 C5.34 13 4.68 13 4 13 C3.896875 11.9275 3.79375 10.855 3.6875 9.75 C3.01397764 6.07624166 2.34125011 4.74842404 0 2 C0 1.34 0 0.68 0 0 Z " fill="#415457" transform="translate(242,425)"/>
<path d="M0 0 C0 0.99 0 1.98 0 3 C-4.40914783 4.10228696 -8.48382401 4.07654536 -13 4 C-13.33 3.34 -13.66 2.68 -14 2 C-9.35150485 -0.3992233 -5.08913926 -0.19957409 0 0 Z " fill="#0CABE7" transform="translate(240,339)"/>
<path d="M0 0 C0.66 0 1.32 0 2 0 C2 3.63 2 7.26 2 11 C3.98 11 5.96 11 8 11 C8 11.66 8 12.32 8 13 C5.36 13 2.72 13 0 13 C0 8.71 0 4.42 0 0 Z " fill="#3F5356" transform="translate(416,425)"/>
<path d="M0 0 C0.99 0.33 1.98 0.66 3 1 C3 1.66 3 2.32 3 3 C-4.75 4.125 -4.75 4.125 -7 3 C-7 2.34 -7 1.68 -7 1 C-7.66 0.67 -8.32 0.34 -9 0 C-5.90998791 -1.54500605 -3.32822635 -0.58389936 0 0 Z " fill="#0EACE9" transform="translate(239,446)"/>
<path d="M0 0 C0.66 0.99 1.32 1.98 2 3 C-0.75078884 3.91692961 -2.35948913 4.10886083 -5.1875 4.0625 C-7.0746875 4.0315625 -7.0746875 4.0315625 -9 4 C-8.3125 2.0625 -8.3125 2.0625 -7 0 C-4.12060581 -0.93580311 -2.74490212 -1.37245106 0 0 Z " fill="#0D3840" transform="translate(348,408)"/>
<path d="M0 0 C1.32 0.99 2.64 1.98 4 3 C4 2.01 4 1.02 4 0 C4.66 0.33 5.32 0.66 6 1 C5.67257813 1.83789062 5.34515625 2.67578125 5.0078125 3.5390625 C3.90352864 7.3312931 3.80067048 10.43553543 3.875 14.375 C3.90207031 16.24285156 3.90207031 16.24285156 3.9296875 18.1484375 C3.95289063 19.08945312 3.97609375 20.03046875 4 21 C3.34 20.67 2.68 20.34 2 20 C2 14.72 2 9.44 2 4 C1.01 4 0.02 4 -1 4 C-0.67 2.68 -0.34 1.36 0 0 Z " fill="#2FAEDF" transform="translate(197,368)"/>
<path d="M0 0 C0.99 0.33 1.98 0.66 3 1 C4.125 5.75 4.125 5.75 3 8 C2.01 8 1.02 8 0 8 C0 7.34 0 6.68 0 6 C-0.66 6 -1.32 6 -2 6 C-1.125 1.125 -1.125 1.125 0 0 Z " fill="#0C3740" transform="translate(553,380)"/>
<path d="M0 0 C-2.79624958 2.18697502 -5.63307872 3.99152813 -8.75 5.6875 C-9.94882813 6.34298828 -9.94882813 6.34298828 -11.171875 7.01171875 C-11.77515625 7.33785156 -12.3784375 7.66398437 -13 8 C-13 5 -13 5 -11 3 C-10.62875 2.46375 -10.2575 1.9275 -9.875 1.375 C-6.79900704 -0.88072817 -3.73518791 -0.18369777 0 0 Z " fill="#D8F9FD" transform="translate(227,339)"/>
<path d="M0 0 C-6.48343811 2.63096039 -12.02330843 3.39325819 -19 3 C-19 2.67 -19 2.34 -19 2 C-16.58525383 1.46839543 -14.16891893 0.94945234 -11.75 0.4375 C-11.06808594 0.28603516 -10.38617188 0.13457031 -9.68359375 -0.02148438 C-6.18230962 -0.75233495 -3.39701827 -1.32203546 0 0 Z " fill="#C2F1FC" transform="translate(267,458)"/>
<path d="M0 0 C0.99 0 1.98 0 3 0 C3 4.62 3 9.24 3 14 C2.01 13.67 1.02 13.34 0 13 C0 8.71 0 4.42 0 0 Z " fill="#314A51" transform="translate(358,394)"/>
<path d="M0 0 C0.99 0 1.98 0 3 0 C3.66 1.98 4.32 3.96 5 6 C3.35 6.33 1.7 6.66 0 7 C-1.125 2.25 -1.125 2.25 0 0 Z " fill="#62777D" transform="translate(373,426)"/>
<path d="M0 0 C2.31 0 4.62 0 7 0 C7 1.32 7 2.64 7 4 C4.69 4 2.38 4 0 4 C0 2.68 0 1.36 0 0 Z " fill="#C8DBDD" transform="translate(477,427)"/>
<path d="M0 0 C2.125 0.9375 2.125 0.9375 4 2 C2.68 2 1.36 2 0 2 C0.66 3.32 1.32 4.64 2 6 C0.56068883 5.54738642 -0.87638999 5.08767021 -2.3125 4.625 C-3.11300781 4.36976563 -3.91351563 4.11453125 -4.73828125 3.8515625 C-7 3 -7 3 -10 1 C-7.98177083 1.03255208 -5.96354167 1.06510417 -3.9453125 1.09765625 C-1.91814596 1.12649242 -1.91814596 1.12649242 0 0 Z " fill="#23ACDE" transform="translate(266,341)"/>
<path d="M0 0 C0.625 3.0625 0.625 3.0625 1 6 C-0.32 6.99 -1.64 7.98 -3 9 C-3 6 -3 6 -2 2 C-4.97 1.67 -7.94 1.34 -11 1 C-11 0.67 -11 0.34 -11 0 C-9.54263913 -0.19491452 -8.08405407 -0.38069358 -6.625 -0.5625 C-5.81289063 -0.66691406 -5.00078125 -0.77132813 -4.1640625 -0.87890625 C-2 -1 -2 -1 0 0 Z " fill="#C9D6D7" transform="translate(323,425)"/>
<path d="M0 0 C4.11583349 3.50608038 6.90567018 8.04628837 9 13 C8.67 13.66 8.34 14.32 8 15 C7.34 13.35 6.68 11.7 6 10 C5.34 10 4.68 10 4 10 C3.32845067 8.71086513 2.66291141 7.41859796 2 6.125 C1.62875 5.40570313 1.2575 4.68640625 0.875 3.9453125 C0 2 0 2 0 0 Z " fill="#2BABDE" transform="translate(209,406)"/>
<path d="M0 0 C2.97 0 5.94 0 9 0 C9 0.66 9 1.32 9 2 C6.69 2 4.38 2 2 2 C2 3.32 2 4.64 2 6 C1.34 6 0.68 6 0 6 C0 4.02 0 2.04 0 0 Z " fill="#4A5B5F" transform="translate(536,425)"/>
<path d="M0 0 C1.32 0 2.64 0 4 0 C4.33 3.3 4.66 6.6 5 10 C0.07692308 5.69230769 0.07692308 5.69230769 -0.3125 2.1875 C-0.209375 1.465625 -0.10625 0.74375 0 0 Z " fill="#0AABE5" transform="translate(201,397)"/>
<path d="M0 0 C-0.33 0.99 -0.66 1.98 -1 3 C-4.3 3 -7.6 3 -11 3 C-6.577168 -0.317124 -5.28089024 -0.30466674 0 0 Z " fill="#16333B" transform="translate(539,410)"/>
<path d="M0 0 C0.33 1.32 0.66 2.64 1 4 C-1.97 3.505 -1.97 3.505 -5 3 C-5.33 4.98 -5.66 6.96 -6 9 C-6.33 9 -6.66 9 -7 9 C-8.33157895 3.55263158 -8.33157895 3.55263158 -6.875 1.125 C-4.46277487 -0.32233508 -2.7648665 -0.22417836 0 0 Z " fill="#4F6061" transform="translate(273,425)"/>
<path d="M0 0 C1.98 0 3.96 0 6 0 C6.66 1.32 7.32 2.64 8 4 C6.906875 3.814375 5.81375 3.62875 4.6875 3.4375 C1.06375867 2.7421932 1.06375867 2.7421932 -2 4 C-1.34 2.68 -0.68 1.36 0 0 Z " fill="#49595A" transform="translate(395,425)"/>
<path d="M0 0 C0.99 0 1.98 0 3 0 C3 2.31 3 4.62 3 7 C-0.96 7 -4.92 7 -9 7 C-9 6.67 -9 6.34 -9 6 C-4.545 5.505 -4.545 5.505 0 5 C0 3.68 0 2.36 0 1 C0 0.67 0 0.34 0 0 Z " fill="#1B333B" transform="translate(472,378)"/>
<path d="M0 0 C5.97296203 -0.76576436 10.21937298 1.67872228 15 5 C15.33 5.66 15.66 6.32 16 7 C12.44745737 6.43159318 9.80862246 4.74122801 6.75 2.921875 C4.55330313 1.76468647 2.45514984 1.29759392 0 1 C0 0.67 0 0.34 0 0 Z " fill="#D9FCFF" transform="translate(258,345)"/>
<path d="M0 0 C-2.52475462 1.26237731 -4.31200466 1.09856404 -7.125 1.0625 C-8.03507812 1.05347656 -8.94515625 1.04445313 -9.8828125 1.03515625 C-10.58148438 1.02355469 -11.28015625 1.01195312 -12 1 C-12 0.34 -12 -0.32 -12 -1 C-3.42857143 -2.42857143 -3.42857143 -2.42857143 0 0 Z " fill="#3D575E" transform="translate(351,413)"/>
<path d="M0 0 C0.33 0 0.66 0 1 0 C1 1.65 1 3.3 1 5 C0.34 5 -0.32 5 -1 5 C-1 5.66 -1 6.32 -1 7 C-1.66 7 -2.32 7 -3 7 C-3 7.66 -3 8.32 -3 9 C-3.66 9 -4.32 9 -5 9 C-4.34 7.02 -3.68 5.04 -3 3 C-2.34 3 -1.68 3 -1 3 C-0.67 2.01 -0.34 1.02 0 0 Z " fill="#04ACEF" transform="translate(206,356)"/>
<path d="M0 0 C1.65 0 3.3 0 5 0 C5 1.32 5 2.64 5 4 C3.35 4 1.7 4 0 4 C0 2.68 0 1.36 0 0 Z " fill="#DEF0F2" transform="translate(560,427)"/>
<path d="M0 0 C1.65 0 3.3 0 5 0 C5 1.32 5 2.64 5 4 C3.35 4 1.7 4 0 4 C0 2.68 0 1.36 0 0 Z " fill="#DBECF0" transform="translate(314,427)"/>
<path d="M0 0 C2.97 0 5.94 0 9 0 C9.33 1.65 9.66 3.3 10 5 C9.01 5 8.02 5 7 5 C7 4.01 7 3.02 7 2 C4.69 2 2.38 2 0 2 C0 1.34 0 0.68 0 0 Z " fill="#314549" transform="translate(558,426)"/>
<path d="M0 0 C0.93065133 2.60582371 1.14917407 3.64198224 0.0625 6.25 C-0.4634375 7.11625 -0.4634375 7.11625 -1 8 C-1.99 7.67 -2.98 7.34 -4 7 C-2.92598892 4.08482708 -2.22189824 2.22189824 0 0 Z " fill="#2A444E" transform="translate(282,381)"/>
<path d="M0 0 C0.99 0 1.98 0 3 0 C3 1.65 3 3.3 3 5 C1.35 5 -0.3 5 -2 5 C-1.125 1.125 -1.125 1.125 0 0 Z " fill="#0E3842" transform="translate(353,382)"/>
<path d="M0 0 C0.66 0.33 1.32 0.66 2 1 C1.41196203 4.02419525 0.77321882 7.01758453 0 10 C-1.98 6.535 -1.98 6.535 -4 3 C-2.68 2.01 -1.36 1.02 0 0 Z " fill="#24454E" transform="translate(535,379)"/>
<path d="M0 0 C1.32 0 2.64 0 4 0 C3.34 1.98 2.68 3.96 2 6 C2.99 6.33 3.98 6.66 5 7 C3.35 7 1.7 7 0 7 C0 4.69 0 2.38 0 0 Z " fill="#2B4348" transform="translate(442,378)"/>
<path d="M0 0 C1.65 0 3.3 0 5 0 C4.67 0.99 4.34 1.98 4 3 C1.11788698 3.96070434 -0.69850044 4.10581883 -3.6875 4.0625 C-4.89986328 4.04896484 -4.89986328 4.04896484 -6.13671875 4.03515625 C-7.05904297 4.01775391 -7.05904297 4.01775391 -8 4 C-8 3.67 -8 3.34 -8 3 C-5.36 3 -2.72 3 0 3 C0 2.01 0 1.02 0 0 Z " fill="#3C5760" transform="translate(395,410)"/>
<path d="M0 0 C0.99 0 1.98 0 3 0 C3.69965443 1.26418246 4.38434763 2.53665402 5.0625 3.8125 C5.63677734 4.87404297 5.63677734 4.87404297 6.22265625 5.95703125 C7 8 7 8 6 11 C4.02 7.37 2.04 3.74 0 0 Z " fill="#CBF7FD" transform="translate(204,396)"/>
<path d="M0 0 C0.99 0.33 1.98 0.66 3 1 C4.1875 3.5625 4.1875 3.5625 5 6 C3.68 6.33 2.36 6.66 1 7 C0.67 4.69 0.34 2.38 0 0 Z " fill="#324D54" transform="translate(355,380)"/>
<path d="M0 0 C0.99 0.33 1.98 0.66 3 1 C2.67 2.32 2.34 3.64 2 5 C0.35 5.33 -1.3 5.66 -3 6 C-2.01 4.02 -1.02 2.04 0 0 Z " fill="#264850" transform="translate(535,400)"/>
<path d="M0 0 C2.64 0 5.28 0 8 0 C6.515 1.98 6.515 1.98 5 4 C3.0625 3.6875 3.0625 3.6875 1 3 C0.67 2.01 0.34 1.02 0 0 Z " fill="#1C3B43" transform="translate(529,378)"/>
<path d="M0 0 C1.32 0.66 2.64 1.32 4 2 C3.01 2.33 2.02 2.66 1 3 C1.33 4.32 1.66 5.64 2 7 C0.35 6.01 -1.3 5.02 -3 4 C-2.01 3.67 -1.02 3.34 0 3 C0 2.01 0 1.02 0 0 Z " fill="#20ACDC" transform="translate(275,346)"/>
<path d="M0 0 C1.98 0 3.96 0 6 0 C6 0.66 6 1.32 6 2 C3.69 2.33 1.38 2.66 -1 3 C-0.67 2.01 -0.34 1.02 0 0 Z " fill="#06ABEA" transform="translate(229,459)"/>
<path d="M0 0 C1.2065625 0.0309375 1.2065625 0.0309375 2.4375 0.0625 C2.4375 0.7225 2.4375 1.3825 2.4375 2.0625 C-0.8625 2.3925 -4.1625 2.7225 -7.5625 3.0625 C-6.2425 2.4025 -4.9225 1.7425 -3.5625 1.0625 C-2.5625 0.0625 -2.5625 0.0625 0 0 Z " fill="#BCF6FC" transform="translate(247.5625,452.9375)"/>
<path d="M0 0 C0.66 0 1.32 0 2 0 C4 3 4 3 3.625 5.1875 C3.41875 5.785625 3.2125 6.38375 3 7 C2.34 6.67 1.68 6.34 1 6 C0.375 2.9375 0.375 2.9375 0 0 Z " fill="#05ADF1" transform="translate(207,406)"/>
</svg>
