<?xml version="1.0" encoding="UTF-8"?>
<svg version="1.1" xmlns="http://www.w3.org/2000/svg" width="1200" height="628">
<path d="M0 0 C1.43359375 1.55078125 1.43359375 1.55078125 1.43359375 3.55078125 C2.09359375 3.55078125 2.75359375 3.55078125 3.43359375 3.55078125 C3.42199219 2.55175781 3.41039062 1.55273438 3.3984375 0.5234375 C3.38941406 -0.76691406 3.38039063 -2.05726563 3.37109375 -3.38671875 C3.35949219 -4.67449219 3.34789062 -5.96226562 3.3359375 -7.2890625 C3.43359375 -10.44921875 3.43359375 -10.44921875 4.43359375 -11.44921875 C13.01359375 -11.44921875 21.59359375 -11.44921875 30.43359375 -11.44921875 C30.43359375 28.81078125 30.43359375 69.07078125 30.43359375 110.55078125 C21.52359375 110.55078125 12.61359375 110.55078125 3.43359375 110.55078125 C3.10359375 105.93078125 2.77359375 101.31078125 2.43359375 96.55078125 C1.44359375 97.60265625 0.45359375 98.65453125 -0.56640625 99.73828125 C-11.49059447 110.59679299 -24.62328007 113.8300065 -39.60620117 113.79516602 C-55.05858092 113.55638063 -68.11149068 107.63564356 -79.28515625 96.93359375 C-92.26918602 83.37150786 -98.53222502 68.22146454 -99.06640625 49.48828125 C-98.50053332 30.38063878 -91.12813651 13.50499859 -77.1875 0.296875 C-54.56581168 -18.83896729 -22.39200668 -19.68576026 0 0 Z M-62.87890625 24.73828125 C-69.27816782 32.27207326 -71.94017913 42.17453121 -71.77734375 51.9609375 C-70.86755998 63.1310604 -66.89415289 71.70950353 -58.75390625 79.36328125 C-49.08364203 87.36305837 -38.67343198 88.21722303 -26.56640625 87.55078125 C-19.27071543 86.40139338 -14.06885792 83.37467946 -8.56640625 78.55078125 C-7.23609375 77.40609375 -7.23609375 77.40609375 -5.87890625 76.23828125 C2.38737529 66.63152162 4.33074524 55.90499343 3.62890625 43.49414062 C2.59105958 33.16756627 -3.63397738 24.31420513 -11.50390625 17.8671875 C-28.7956365 6.83060967 -49.01948957 10.41773795 -62.87890625 24.73828125 Z " fill="#0B1345" transform="translate(367.56640625,288.44921875)"/>
<path d="M0 0 C13.85921572 13.06023655 19.92452348 30.47790968 20.95703125 49.125 C21.02312632 53.01988807 20.76077405 56.52747423 20.01171875 60.34765625 C18.1228668 62.2365082 15.37120116 61.4677626 12.85847473 61.47207642 C11.97374985 61.46848114 11.08902496 61.46488586 10.17749023 61.46118164 C9.250755 61.46132767 8.32401978 61.46147369 7.36920166 61.46162415 C4.29038188 61.46092463 1.21162178 61.45313046 -1.8671875 61.4453125 C-3.99568143 61.44344846 -6.12417578 61.44202449 -8.25267029 61.44102478 C-13.86690445 61.43719853 -19.48111293 61.42736733 -25.09533691 61.4163208 C-30.81941378 61.40610898 -36.54349478 61.40152765 -42.26757812 61.39648438 C-53.50782381 61.38574516 -64.7480504 61.36866745 -75.98828125 61.34765625 C-75.22371993 63.10040552 -74.45135632 64.84975255 -73.67578125 66.59765625 C-73.24652344 67.5721875 -72.81726563 68.54671875 -72.375 69.55078125 C-71.11664309 72.08876308 -69.68461468 74.0991439 -67.98828125 76.34765625 C-67.98828125 77.00765625 -67.98828125 77.66765625 -67.98828125 78.34765625 C-67.42753906 78.62609375 -66.86679687 78.90453125 -66.2890625 79.19140625 C-64.73848327 79.97064471 -63.19425102 80.76262682 -61.65625 81.56640625 C-60.83769531 81.98921875 -60.01914062 82.41203125 -59.17578125 82.84765625 C-58.36496094 83.27046875 -57.55414062 83.69328125 -56.71875 84.12890625 C-46.4544425 88.71039973 -32.86966419 89.28872351 -22.19921875 85.46484375 C-16.25952424 82.46351402 -11.65464498 78.01401998 -6.98828125 73.34765625 C-0.05828125 77.30765625 6.87171875 81.26765625 14.01171875 85.34765625 C12.66966013 90.71589072 9.78226014 93.42476976 6.01171875 97.34765625 C5.50769531 97.87746094 5.00367188 98.40726562 4.484375 98.953125 C-8.21658693 111.00772755 -26.74855062 114.54550804 -43.6875 114.45654297 C-61.03699922 113.63546098 -77.97701768 105.20033942 -89.67578125 92.53515625 C-100.9740996 78.9353286 -106.37771345 62.0002784 -104.98828125 44.34765625 C-103.69938756 32.31372805 -99.84480887 22.87890098 -93.98828125 12.34765625 C-93.65828125 11.68765625 -93.32828125 11.02765625 -92.98828125 10.34765625 C-92.32828125 10.34765625 -91.66828125 10.34765625 -90.98828125 10.34765625 C-90.73433594 9.76886719 -90.48039063 9.19007813 -90.21875 8.59375 C-84.04372374 -2.67812332 -71.74565844 -8.31000219 -60.0859375 -12.04492188 C-39.00236062 -18.15012896 -16.93615187 -14.07464095 0 0 Z M-68.30078125 21.59765625 C-72.78666981 26.96102401 -75.98828125 32.25988028 -75.98828125 39.34765625 C-53.21828125 39.34765625 -30.44828125 39.34765625 -6.98828125 39.34765625 C-9.35641839 28.69103913 -12.93226971 21.58793311 -21.98828125 15.34765625 C-36.96813632 6.42835323 -56.30223342 8.86586383 -68.30078125 21.59765625 Z " fill="#0B1345" transform="translate(807.98828125,288.65234375)"/>
<path d="M0 0 C12.93554134 13.69773654 18.3018387 28.70612003 18.3203125 47.45703125 C17.55757486 66.37931898 10.41705342 81.30400239 -3.28125 94.39453125 C-16.99700361 106.18918582 -33.83081734 110.75389396 -51.6796875 110.45703125 C-69.79302132 108.88935345 -86.14729418 98.74405174 -97.796875 85.06640625 C-106.27962747 73.31022647 -110.2736507 60.19758077 -110.1796875 45.76953125 C-110.17001953 44.20187012 -110.17001953 44.20187012 -110.16015625 42.60253906 C-109.75347563 25.21694264 -103.39183225 12.26955056 -91.3671875 -0.35546875 C-65.6384955 -24.85059332 -25.77695227 -24.32648068 0 0 Z M-74.5 20.3046875 C-82.2802848 29.82478473 -83.78666557 40.62449636 -82.90722656 52.52734375 C-81.74747426 62.36283966 -75.21398837 71.07201287 -67.640625 77.140625 C-59.25867458 82.76755187 -49.3521204 84.43544088 -39.4296875 82.98046875 C-33.5435587 81.64137445 -28.66740241 79.84867739 -23.6796875 76.45703125 C-22.6896875 75.79703125 -21.6996875 75.13703125 -20.6796875 74.45703125 C-12.89361772 67.55003387 -9.69391095 58.2305008 -8.765625 48.1328125 C-8.53463401 38.25269803 -10.5888004 28.35106085 -17.21484375 20.6796875 C-18.61758501 19.24343515 -18.61758501 19.24343515 -20.6796875 19.45703125 C-20.88980469 18.86277344 -21.09992188 18.26851563 -21.31640625 17.65625 C-23.19212097 14.63038357 -25.30439436 13.79857136 -28.4921875 12.26953125 C-30.04873047 11.50576172 -30.04873047 11.50576172 -31.63671875 10.7265625 C-46.66228674 4.45787239 -63.35278378 8.99002382 -74.5 20.3046875 Z " fill="#0B1345" transform="translate(1035.6796875,292.54296875)"/>
<path d="M0 0 C1 1 1 1 1.11352539 3.40844727 C1.10567017 4.97163696 1.10567017 4.97163696 1.09765625 6.56640625 C1.09282227 8.2534668 1.09282227 8.2534668 1.08789062 9.97460938 C1.07532227 11.75061523 1.07532227 11.75061523 1.0625 13.5625 C1.05798828 14.75037109 1.05347656 15.93824219 1.04882812 17.16210938 C1.03699675 20.10812226 1.02051287 23.05403681 1 26 C-2.09577944 27.03192648 -4.56535835 27.20345289 -7.8125 27.375 C-12.55743063 27.73029674 -15.88827271 28.46970629 -20 31 C-20.99 31.33 -21.98 31.66 -23 32 C-25.00407442 35.88559752 -25.74942648 40.0540288 -26.625 44.3125 C-27.08333333 46.54166667 -27.54166667 48.77083333 -28 51 C-27.15703369 50.99476318 -26.31406738 50.98952637 -25.44555664 50.98413086 C-22.32772064 50.96712174 -19.20990823 50.95456594 -16.09204102 50.94506836 C-14.74079614 50.94002943 -13.38955674 50.93319823 -12.03833008 50.92456055 C-10.09979566 50.91247581 -8.161222 50.90730172 -6.22265625 50.90234375 C-4.47094116 50.89448853 -4.47094116 50.89448853 -2.68383789 50.88647461 C0 51 0 51 1 52 C1.09959621 53.84159023 1.13080411 55.68696967 1.1328125 57.53125 C1.13410156 58.65144531 1.13539063 59.77164063 1.13671875 60.92578125 C1.13285156 62.10527344 1.12898438 63.28476562 1.125 64.5 C1.12886719 65.67949219 1.13273437 66.85898437 1.13671875 68.07421875 C1.13542969 69.19441406 1.13414062 70.31460938 1.1328125 71.46875 C1.13168457 72.50451172 1.13055664 73.54027344 1.12939453 74.60742188 C1 77 1 77 0 78 C-9.24 78 -18.48 78 -28 78 C-28 109.35 -28 140.7 -28 173 C-36.91 173 -45.82 173 -55 173 C-55 141.65 -55 110.3 -55 78 C-60.94 78 -66.88 78 -73 78 C-73 69.09 -73 60.18 -73 51 C-67.06 51 -61.12 51 -55 51 C-55.061875 49.618125 -55.12375 48.23625 -55.1875 46.8125 C-55.15085213 33.85747703 -50.92947093 21.30892416 -41.98828125 11.8125 C-30.51147555 1.35034314 -15.02062322 -1.25514797 0 0 Z " fill="#0B1345" transform="translate(491,226)"/>
<path d="M0 0 C0 10.89 0 21.78 0 33 C9.49892964 32.96040374 9.49892964 32.96040374 18.99780273 32.90991211 C20.17286377 32.90741455 21.3479248 32.90491699 22.55859375 32.90234375 C24.37315063 32.89448853 24.37315063 32.89448853 26.22436523 32.88647461 C29 33 29 33 30 34 C30.09959621 35.84159023 30.13080411 37.68696967 30.1328125 39.53125 C30.13410156 40.65144531 30.13539063 41.77164063 30.13671875 42.92578125 C30.13285156 44.10527344 30.12898437 45.28476562 30.125 46.5 C30.12886719 47.67949219 30.13273438 48.85898437 30.13671875 50.07421875 C30.13542969 51.19441406 30.13414062 52.31460938 30.1328125 53.46875 C30.13168457 54.50451172 30.13055664 55.54027344 30.12939453 56.60742188 C30 59 30 59 29 60 C26.85441173 60.08775605 24.70595579 60.10695219 22.55859375 60.09765625 C21.25341797 60.09443359 19.94824219 60.09121094 18.60351562 60.08789062 C17.2148431 60.07953401 15.82617123 60.07106905 14.4375 60.0625 C13.04492344 60.05748666 11.65234519 60.05292347 10.25976562 60.04882812 C6.8398013 60.03699434 3.41992156 60.0205088 0 60 C0.06127752 67.99768959 0.13843075 75.99500283 0.23571491 83.99232769 C0.28039482 87.70604459 0.31965586 91.41965239 0.34643555 95.13354492 C0.37249278 98.71936673 0.41291143 102.30476819 0.46318626 105.89032936 C0.47983879 107.25656712 0.49136315 108.62287756 0.49761391 109.9892025 C0.50727161 111.90657498 0.5370458 113.82381389 0.56762695 115.7409668 C0.58428154 117.37644722 0.58428154 117.37644722 0.60127258 119.04496765 C1.05628036 122.4171027 1.97949173 124.28184534 4 127 C9.30967538 130.53978359 14.58679661 130.1039326 20.75 130 C23.5059697 129.95444678 26.24275676 129.95266535 29 130 C30 131 30 131 30.11352539 133.31665039 C30.10567017 134.81699829 30.10567017 134.81699829 30.09765625 136.34765625 C30.09282227 137.96704102 30.09282227 137.96704102 30.08789062 139.61914062 C30.07532227 141.32360352 30.07532227 141.32360352 30.0625 143.0625 C30.05798828 144.20267578 30.05347656 145.34285156 30.04882812 146.51757812 C30.03699747 149.34510351 30.0205141 152.1725264 30 155 C15.78851769 157.3217705 -1.72176908 158.05662995 -14.1875 150 C-21.61322748 144.54784062 -24.75435594 137.87115679 -26.67114258 128.83666992 C-28.53885529 115.10190169 -28.21935717 101.33489763 -28.125 87.5 C-28.11494823 84.92318057 -28.10582628 82.34635733 -28.09765625 79.76953125 C-28.07582132 73.51292543 -28.04141272 67.25650561 -28 61 C-34.93 60.67 -41.86 60.34 -49 60 C-49 51.09 -49 42.18 -49 33 C-38.605 32.505 -38.605 32.505 -28 32 C-28.03933373 26.0172867 -28.03933373 26.0172867 -28.09008789 20.03466797 C-28.09258545 19.27814941 -28.09508301 18.52163086 -28.09765625 17.7421875 C-28.10551147 16.59532471 -28.10551147 16.59532471 -28.11352539 15.42529297 C-27.9794971 12.56198745 -27.51469003 9.81743816 -27 7 C-22.87617911 5.82913737 -18.75075687 4.66402073 -14.625 3.5 C-13.449375 3.16613281 -12.27375 2.83226562 -11.0625 2.48828125 C-9.94101562 2.17246094 -8.81953125 1.85664063 -7.6640625 1.53125 C-6.62717285 1.23798828 -5.5902832 0.94472656 -4.52197266 0.64257812 C-2 0 -2 0 0 0 Z " fill="#0B1345" transform="translate(544,244)"/>
<path d="M0 0 C1.299375 0.00902344 2.59875 0.01804687 3.9375 0.02734375 C7.12508005 0.05078184 10.3125645 0.0866485 13.5 0.125 C13.5 9.035 13.5 17.945 13.5 27.125 C8.1478125 27.24875 8.1478125 27.24875 2.6875 27.375 C-8.94394136 27.81205234 -18.08236245 28.93716857 -26.78125 37.26171875 C-34.37027845 45.4889155 -36.35517552 53.07884222 -36.5 64.125 C-35.89483272 72.71837541 -31.49412808 80.63967175 -25.25 86.5 C-18.84577772 91.53494536 -10.575816 94.09737371 -2.515625 94.44140625 C-1.67290039 94.47951416 -0.83017578 94.51762207 0.03808594 94.55688477 C1.09801758 94.59998779 2.15794922 94.64309082 3.25 94.6875 C6.6325 94.831875 10.015 94.97625 13.5 95.125 C13.5 104.035 13.5 112.945 13.5 122.125 C-9.15881775 122.71507338 -28.22298614 121.91285746 -45.8984375 105.8046875 C-54.5 96.78353659 -54.5 96.78353659 -54.5 93.125 C-55.16 93.125 -55.82 93.125 -56.5 93.125 C-64.36330671 77.61594842 -67.62949892 60.05893415 -62.58984375 43.08203125 C-56.04044452 25.31179749 -45.13202355 12.53692169 -27.875 4.3125 C-18.508351 0.09030284 -10.15229346 -0.13412583 0 0 Z " fill="#0B1345" transform="translate(153.5,276.875)"/>
<path d="M0 0 C0 9.9 0 19.8 0 30 C-3.650625 30.3403125 -3.650625 30.3403125 -7.375 30.6875 C-16.05254686 31.68645554 -23.32931773 33.76151798 -29.4375 40.375 C-35.13807399 47.81473216 -36.08260744 55.71978254 -36.20532227 64.85327148 C-36.22017166 65.82040825 -36.22017166 65.82040825 -36.23532104 66.80708313 C-36.26659289 68.9117176 -36.29155569 71.01637454 -36.31640625 73.12109375 C-36.33700553 74.59083094 -36.35800273 76.0605626 -36.37937927 77.5302887 C-36.4342931 81.37872816 -36.48383629 85.22721834 -36.53222656 89.07574463 C-36.58266723 93.01082821 -36.63823491 96.94583911 -36.69335938 100.88085938 C-36.80056497 108.58717947 -36.90161724 116.29356129 -37 124 C-45.91 124 -54.82 124 -64 124 C-64.02254729 108.24082936 -64.04097933 92.48167142 -64.05181217 76.72248936 C-64.05697506 69.40572598 -64.06401762 62.0889733 -64.07543945 54.7722168 C-64.08538651 48.39716982 -64.09185348 42.02213059 -64.09408849 35.64707607 C-64.09539557 32.26951986 -64.09848119 28.89198584 -64.10573006 25.51443672 C-64.11293613 21.74992657 -64.11399113 17.98546315 -64.11352539 14.22094727 C-64.1189183 12.52918114 -64.1189183 12.52918114 -64.12442017 10.80323792 C-64.1230455 9.78375061 -64.12167084 8.76426331 -64.12025452 7.71388245 C-64.12117631 6.82250863 -64.1220981 5.93113482 -64.12304783 5.01274967 C-64 3 -64 3 -63 2 C-61.07332493 1.91251793 -59.14348139 1.89302666 -57.21484375 1.90234375 C-55.46010742 1.90717773 -55.46010742 1.90717773 -53.66992188 1.91210938 C-51.82237305 1.92467773 -51.82237305 1.92467773 -49.9375 1.9375 C-48.08415039 1.94426758 -48.08415039 1.94426758 -46.19335938 1.95117188 C-43.12888587 1.96300382 -40.06443707 1.98093992 -37 2 C-36.505 9.92 -36.505 9.92 -36 18 C-34.63875 16.4325 -33.2775 14.865 -31.875 13.25 C-23.08879997 3.56195051 -12.98115454 0 0 0 Z " fill="#0B1345" transform="translate(914,275)"/>
<path d="M0 0 C0 9.9 0 19.8 0 30 C-6.435 30.495 -6.435 30.495 -13 31 C-16.69265235 32.02618736 -16.69265235 32.02618736 -19.625 33.5 C-20.58664063 33.9434375 -21.54828125 34.386875 -22.5390625 34.84375 C-23.35117188 35.2253125 -24.16328125 35.606875 -25 36 C-25.99 36.33 -26.98 36.66 -28 37 C-28 37.66 -28 38.32 -28 39 C-28.66 39 -29.32 39 -30 39 C-30.268125 39.680625 -30.53625 40.36125 -30.8125 41.0625 C-31.70142487 43.26141942 -32.62367205 45.44691917 -33.5625 47.625 C-35.56702393 52.33127357 -36.14124965 55.66800806 -36.20532227 60.76635742 C-36.22017166 61.79113945 -36.22017166 61.79113945 -36.23532104 62.83662415 C-36.26688679 65.09287053 -36.2916739 67.34913797 -36.31640625 69.60546875 C-36.33698004 71.17060389 -36.35797662 72.73573352 -36.37937927 74.30085754 C-36.43455609 78.41897116 -36.48398471 82.53713456 -36.53222656 86.65533447 C-36.58247365 90.85815864 -36.63814297 95.06091058 -36.69335938 99.26367188 C-36.80088728 107.50905515 -36.90184304 115.75449984 -37 124 C-45.91 124 -54.82 124 -64 124 C-64 83.74 -64 43.48 -64 2 C-55.42 2 -46.84 2 -38 2 C-36.00383446 3.99616554 -36.59016573 7.81701963 -36.4375 10.5625 C-36.39431641 11.27341797 -36.35113281 11.98433594 -36.30664062 12.71679688 C-36.20028223 14.47761912 -36.09961154 16.2387832 -36 18 C-35.5875 17.40832031 -35.175 16.81664062 -34.75 16.20703125 C-26.14321009 4.43032988 -14.45581575 0 0 0 Z " fill="#0B1345" transform="translate(258,275)"/>
<path d="M0 0 C0 11.88 0 23.76 0 36 C-0.66 36 -1.32 36 -2 36 C-2 36.66 -2 37.32 -2 38 C-2.66 38 -3.32 38 -4 38 C-4 38.66 -4 39.32 -4 40 C-4.66 40 -5.32 40 -6 40 C-6.33 40.99 -6.66 41.98 -7 43 C-7.66 43 -8.32 43 -9 43 C-9 43.66 -9 44.32 -9 45 C-9.66 45 -10.32 45 -11 45 C-11.33 45.99 -11.66 46.98 -12 48 C-12.66 48 -13.32 48 -14 48 C-14 48.66 -14 49.32 -14 50 C-14.66 50 -15.32 50 -16 50 C-16.268125 50.639375 -16.53625 51.27875 -16.8125 51.9375 C-18 54 -18 54 -21 55 C-21 55.66 -21 56.32 -21 57 C-21.66 57 -22.32 57 -23 57 C-23.33 57.99 -23.66 58.98 -24 60 C-24.66 60 -25.32 60 -26 60 C-26 60.66 -26 61.32 -26 62 C-26.66 62 -27.32 62 -28 62 C-28.33 62.99 -28.66 63.98 -29 65 C-29.66 65 -30.32 65 -31 65 C-31 65.66 -31 66.32 -31 67 C-31.66 67 -32.32 67 -33 67 C-33.268125 67.639375 -33.53625 68.27875 -33.8125 68.9375 C-35 71 -35 71 -38 72 C-38.33 72.66 -38.66 73.32 -39 74 C-39.33 74.66 -39.66 75.32 -40 76 C-40.99 76.33 -41.98 76.66 -43 77 C-43 77.66 -43 78.32 -43 79 C-43.66 79 -44.32 79 -45 79 C-45.268125 79.639375 -45.53625 80.27875 -45.8125 80.9375 C-47 83 -47 83 -50 84 C-50.6908601 85.32095971 -51.35372754 86.65666306 -52 88 C-53.24984516 89.42073098 -54.55669263 90.79218513 -55.89892578 92.12597656 C-56.6996048 92.92650452 -57.50028381 93.72703247 -58.32522583 94.55181885 C-59.18985443 95.40612488 -60.05448303 96.26043091 -60.9453125 97.140625 C-61.8303244 98.02280701 -62.7153363 98.90498901 -63.62716675 99.81390381 C-65.97450131 102.15194543 -68.32606785 104.48555874 -70.67980957 106.81713867 C-73.08313927 109.19996526 -75.48077767 111.58850348 -77.87890625 113.9765625 C-82.58071467 118.65631862 -87.28818664 123.33031867 -92 128 C-92.66 127.67 -93.32 127.34 -94 127 C-94.17426207 122.44697246 -94.30062038 117.89592242 -94.38452148 113.34033203 C-94.41952406 111.7940893 -94.46714551 110.24807491 -94.52807617 108.70263672 C-94.61391852 106.46785024 -94.65288141 104.23614552 -94.68359375 102 C-94.71972275 101.31945557 -94.75585175 100.63891113 -94.79307556 99.93774414 C-94.79648013 95.68728288 -93.86121528 93.45446335 -90.99241638 90.30407715 C-90.03808826 89.25524605 -90.03808826 89.25524605 -89.06448078 88.18522644 C-85.54568379 84.46062494 -81.95443279 80.8155924 -78.32666016 77.19726562 C-77.48843719 76.35729034 -76.65021423 75.51731506 -75.78659058 74.65188599 C-73.0399096 71.90083482 -70.28962451 69.15342041 -67.5390625 66.40625 C-65.62294972 64.48991419 -63.70743585 62.57298005 -61.7918396 60.65612793 C-57.79091767 56.65339436 -53.78790839 52.65275742 -49.78369141 48.65332031 C-45.15045223 44.02554792 -40.52086154 39.39414897 -35.89309847 34.76090097 C-31.91264566 30.77591931 -27.9302591 26.79287801 -23.94623029 22.81147146 C-21.5693228 20.43612466 -19.19310033 18.06010317 -16.81862259 15.68232727 C-14.18047625 13.04165848 -11.53917547 10.40418721 -8.89697266 7.76757812 C-8.10740173 6.97598297 -7.31783081 6.18438782 -6.5043335 5.36880493 C-5.7894577 4.65674896 -5.07458191 3.94469299 -4.33804321 3.21105957 C-3.71386316 2.58725655 -3.08968311 1.96345352 -2.44658852 1.32074738 C-1 0 -1 0 0 0 Z " fill="#0B1345" transform="translate(693,274)"/>
<path d="M0 0 C0.99261337 0.00222061 1.98522675 0.00444122 3.00791931 0.00672913 C4.12900589 0.00680466 5.25009247 0.00688019 6.40515137 0.00695801 C8.2348069 0.01469994 8.2348069 0.01469994 10.10142517 0.02259827 C11.96377052 0.02472069 11.96377052 0.02472069 13.86373901 0.02688599 C17.16982383 0.03154861 20.47584039 0.04053955 23.78190613 0.05158997 C27.15338042 0.06180625 30.52486175 0.06638407 33.89634705 0.07142639 C40.51550667 0.08248056 47.13463385 0.09923715 53.75376892 0.12025452 C53.61094621 1.73032855 53.46299181 3.33994797 53.31285095 4.94935608 C53.23100555 5.84575806 53.14916016 6.74216003 53.06483459 7.66572571 C52.19609113 14.52072783 47.81198017 19.75783205 42.51548767 23.90541077 C35.64322388 28.6443776 28.93840495 29.82789841 20.75376892 29.12025452 C12.03965034 27.50762476 5.86472409 22.50968976 0.87876892 15.30775452 C-1.66840908 10.91903567 -2.83327367 6.16423436 -3.24623108 1.12025452 C-2.24623108 0.12025452 -2.24623108 0.12025452 0 0 Z " fill="#0B1345" transform="translate(602.2462310791016,273.87974548339844)"/>
<path d="M0 0 C4.59314829 4.46900915 7.81829542 10.00150812 9.3125 16.25 C9.3125 18.23 9.3125 20.21 9.3125 22.25 C-9.1675 22.25 -27.6475 22.25 -46.6875 22.25 C-46.6875 13.62073799 -45.60113795 8.54134018 -39.78515625 2.1640625 C-27.40513899 -9.09913938 -13.57364409 -8.83865196 0 0 Z " fill="#0B1345" transform="translate(683.6875,379.75)"/>
<path d="M0 0 C5.473708 2.32140042 9.05827216 6.43988665 11.375 11.859375 C12.88244042 17.02235842 12.90393168 21.84005419 10.4375 26.6875 C7.70415341 30.86047398 3.82173058 35.09223396 -1.015625 36.6484375 C-7.49717591 37.79674376 -12.09837612 36.48489426 -18 34 C-18 33.34 -18 32.68 -18 32 C-18.8971875 31.690625 -18.8971875 31.690625 -19.8125 31.375 C-23.07517173 29.32417777 -23.73608604 27.66535049 -25 24 C-25.63301027 18.43256029 -25.79536622 13.68250546 -23.375 8.5625 C-16.18324254 0.80297222 -10.68617414 -1.28734028 0 0 Z " fill="#0B1345" transform="translate(1099,365)"/>
</svg>
