<svg width="87" height="59" viewBox="0 0 87 59" fill="none" xmlns="http://www.w3.org/2000/svg">
<path d="M1.09968 44.7253C1.49968 50.3253 4.93301 55.7253 6.59968 57.7253C7.09975 52.2253 19.5996 48.7253 22.0996 48.7253C24.0996 48.7253 37.9329 44.7253 44.5996 42.7253C53.9329 39.7253 75.0996 32.6254 85.0996 28.2254C88.5996 10.7254 79.0996 -0.774631 78.5996 1.22537C78.1996 2.82537 65.7663 7.55868 59.5996 9.72535C47.4329 14.2253 21.0996 23.5253 13.0996 24.7253C5.09961 25.9253 2.43299 28.892 2.09968 30.2253C1.59968 32.7253 0.69968 39.1253 1.09968 44.7253Z" fill="#3F509E" stroke="#3F509E"/>
<path d="M35.309 27.3462C34.905 27.2819 34.4876 27.2516 34.0566 27.2551C33.6228 27.2498 33.2285 27.3052 32.8736 27.4213C32.3946 27.578 32.048 27.8093 31.8338 28.115C31.6285 28.4179 31.5868 28.7556 31.7087 29.1282C31.7958 29.3943 31.9658 29.5989 32.2189 29.742C32.4779 29.8733 32.7829 29.965 33.1338 30.0171C33.4907 30.0574 33.8595 30.089 34.2401 30.1117C34.5677 30.1224 34.898 30.1567 35.2312 30.2146C35.5704 30.2607 35.8901 30.3525 36.1904 30.4899C36.4907 30.6274 36.7596 30.834 36.9972 31.1098C37.2318 31.3767 37.4246 31.7408 37.5756 32.2021C37.741 32.7077 37.7648 33.2155 37.6469 33.7254C37.5349 34.2236 37.2801 34.6753 36.8823 35.0804C36.4846 35.4855 35.9442 35.7998 35.2612 36.0233C34.8531 36.1568 34.4394 36.2431 34.0201 36.2821C33.6096 36.3182 33.2068 36.3175 32.8115 36.2799C32.4133 36.2334 32.0359 36.1605 31.6793 36.0611L31.975 34.6239C32.2401 34.7139 32.532 34.7804 32.8505 34.8235C33.169 34.8666 33.4877 34.8802 33.8066 34.8642C34.1254 34.8483 34.4135 34.7982 34.6707 34.714C34.9457 34.624 35.2017 34.4912 35.4388 34.3154C35.6819 34.1278 35.8587 33.903 35.9694 33.6409C36.0889 33.376 36.0935 33.0749 35.9832 32.7378C35.8932 32.4629 35.7365 32.2539 35.513 32.111C35.2983 31.9652 35.0391 31.8634 34.7355 31.8057C34.4289 31.739 34.1059 31.6974 33.7666 31.6808C33.4272 31.6642 33.0791 31.6357 32.7222 31.5953C32.3653 31.555 32.016 31.4778 31.6742 31.3638C31.3385 31.2379 31.037 31.0518 30.7697 30.8054C30.5025 30.5589 30.2963 30.2139 30.1512 29.7704C29.977 29.2382 29.9503 28.7363 30.071 28.2647C30.1916 27.7931 30.4315 27.3709 30.7907 26.998C31.1588 26.6223 31.6282 26.3312 32.199 26.1248C32.882 25.9013 33.4906 25.7954 34.0248 25.8072C34.5649 25.8073 35.059 25.8616 35.507 25.9704L35.309 27.3462ZM42.5928 33.6685C42.0695 33.8397 41.5542 33.8856 41.047 33.806C40.5486 33.7236 40.1041 33.5057 39.7135 33.1523C39.32 32.7901 39.0173 32.2852 38.8054 31.6376C38.5965 30.9989 38.5466 30.4113 38.6558 29.8747C38.771 29.3264 39.0008 28.8584 39.3453 28.4707C39.6987 28.0801 40.1282 27.802 40.6338 27.6366C41.1749 27.4595 41.6459 27.4282 42.0467 27.5426C42.4534 27.6452 42.7963 27.8079 43.0755 28.0308L43.0653 28.2698L42.8721 27.1841L44.2426 26.7356L46.0843 32.364L44.594 32.8516L44.1456 31.4811L44.4095 31.7925C44.4003 31.8544 44.3584 31.9663 44.2837 32.1283C44.215 32.2784 44.1107 32.4549 43.9709 32.6578C43.831 32.8607 43.6484 33.053 43.4231 33.2348C43.2067 33.4136 42.9299 33.5582 42.5928 33.6685ZM42.6048 32.3094C42.8797 32.2194 43.1122 32.0893 43.302 31.9192C43.4918 31.7491 43.6331 31.5506 43.7259 31.3239C43.8186 31.0971 43.8598 30.8479 43.8495 30.5763L43.449 29.3522C43.3025 29.1448 43.1219 28.9829 42.9071 28.8666C42.6894 28.7415 42.4492 28.6678 42.1867 28.6457C41.933 28.6207 41.6686 28.6532 41.3937 28.7432C41.0832 28.8448 40.824 29.0131 40.6161 29.248C40.4171 29.4801 40.2813 29.7553 40.2087 30.0737C40.1449 30.3891 40.1697 30.7198 40.2829 31.0658C40.3932 31.4029 40.5731 31.6828 40.8228 31.9055C41.0724 32.1283 41.3565 32.2759 41.6748 32.3485C41.9932 32.4211 42.3032 32.4081 42.6048 32.3094ZM44.7331 21.3164L46.2234 20.8287L49.6194 31.2073L48.1291 31.6949L44.7331 21.3164ZM54.3991 29.8053C53.7338 30.023 53.124 30.0801 52.5697 29.9767C52.0154 29.8733 51.54 29.636 51.1436 29.2649C50.7472 28.8938 50.4532 28.4155 50.2617 27.83C50.0788 27.2712 50.0553 26.7191 50.1911 26.1739C50.324 25.6197 50.5865 25.1312 50.9784 24.7084C51.3763 24.2737 51.868 23.9606 52.4534 23.7691C53.2252 23.5165 53.9334 23.5352 54.5782 23.8251C55.229 24.1031 55.7721 24.6226 56.2077 25.3836L52.1711 28.3984L51.5509 27.6733L54.6899 25.2468L54.4272 25.5243C54.2514 25.2872 54.0207 25.1074 53.7351 24.9848C53.4465 24.8533 53.1071 24.8514 52.7168 24.9792C52.4064 25.0807 52.156 25.2461 51.9659 25.4753C51.7757 25.7045 51.6532 25.9753 51.5984 26.2879C51.5495 26.5887 51.5831 26.9165 51.6992 27.2713C51.8211 27.6438 52.0024 27.9429 52.2432 28.1686C52.4811 28.3854 52.7533 28.5271 53.0599 28.5937C53.3636 28.6514 53.6795 28.6266 54.0078 28.5192C54.2384 28.4438 54.4427 28.3327 54.6206 28.1861C54.8073 28.0366 54.9765 27.8634 55.1281 27.6665L56.1681 28.5489C55.9363 28.8309 55.6619 29.0877 55.3448 29.3191C55.0337 29.5387 54.7185 29.7008 54.3991 29.8053Z" fill="#EEEFFB"/>
</svg>
